<svg x="0" y="0" width="32" height="32" viewBox="0 0 220 220" version="1.1" xmlns="http://www.w3.org/2000/svg" xmlns:xlink="http://www.w3.org/1999/xlink" style="margin-left:auto;margin-right:auto" display="block"><defs><clipPath id="c0_1"><path d="M9,208.6V10.8H206.8V208.6Z"/></clipPath><clipPath id="c1_1"><path d="M24.4,192.7V28.1H191.6V192.7Z"/></clipPath><clipPath id="c2_1"><path d="M158.9,90.7L136.8,77.9l5.5,-9.5l22.2,12.8l-5.6,9.5Z"/></clipPath><clipPath id="c3_1"><path d="M149.6,105.2L128.2,92.8l5.5,-9.5l21.4,12.3l-5.5,9.6Z"/></clipPath><clipPath id="c4_1"><path d="M164.9,109.6l-47,-27.1l9.2,-15.9l47,27.1l-9.2,15.9Z"/></clipPath><clipPath id="c5_1"><path d="M160.7,106l-5.3,-3l7.3,-12.7l5.3,3L160.7,106Z"/></clipPath><clipPath id="c6_1"><path d="M129.3,86L124,83l7.3,-12.7l5.3,3L129.3,86Z"/></clipPath><clipPath id="c7_1"><path d="M152.8,96.1L147.5,93l4,-7l5.3,3.1l-4,7Z"/></clipPath><clipPath id="c8_1"><path d="M141.4,89.6l-5.3,-3l4.1,-7l5.2,3l-4,7Z"/></clipPath><clipPath id="c9_1"><path d="M52.3,89.9L46.8,80.3L69,67.5l5.5,9.6L52.3,89.9Z"/></clipPath><clipPath id="c10_1"><path d="M60.9,104.8L55.4,95.2L76.9,82.9l5.5,9.5L60.9,104.8Z"/></clipPath><clipPath id="c11_1"><path d="M46.9,108.5L37.7,92.6l47,-27.1l9.1,15.9L46.9,108.5Z"/></clipPath><clipPath id="c12_1"><path d="M83.4,86.3L76,73.6l5.3,-3.1l7.4,12.7l-5.3,3.1Z"/></clipPath><clipPath id="c13_1"><path d="M50.3,103.4L43,90.7l5.3,-3l7.3,12.7l-5.3,3Z"/></clipPath><clipPath id="c14_1"><path d="M70.8,88.1l-4.1,-7l5.3,-3l4.1,7l-5.3,3Z"/></clipPath><clipPath id="c15_1"><path d="M59.5,94.7l-4,-6.9l5.3,-3.1l4,7l-5.3,3Z"/></clipPath><style type="text/css">text{white-space:pre}path{pointer-events:none}.s1_1{font-size:21.39px;font-family:Helvetica-Bold;fill:#000}.g0_1{fill:#fff}.g1_1{stroke-width:3.0555556}.g1_1,.g2_1,.g3_1,.g4_1,.g5_1{fill:none;stroke:#000;stroke-linecap:butt;stroke-linejoin:miter;stroke-miterlimit:4}.g2_1{stroke-width:2.6468139}.g3_1{stroke-width:1.5266473}.g4_1{stroke-width:2.6467528}.g5_1{stroke-width:1.5267695}</style></defs><path d="M0,0 L0,224 L219,224 L219,0 Z" fill="#FFF" stroke="none"/><path d="M-7.3,-6.3H695.4V1167H-7.3Z" class="g0_1"/><g clip-path="url(#c0_1)"><path d="M175.7,41.9c37.4,37.4,37.4,98.1,0,135.5c-37.4,37.5,-98.1,37.5,-135.5,0C2.7,140,2.7,79.3,40.2,41.9C77.6,4.5,138.3,4.5,175.7,41.9Z" class="g1_1"/></g><g clip-path="url(#c1_1)"><path d="M120.1,31.1c8.1,1.4,16,3.9,23.5,7.6c7.5,3.6,14.6,8.3,20.9,14.3c32.3,30.6,31.9,82,0,113.3c-31.4,31,-82,31.1,-113.3,0C19.6,135.1,19.5,84,51.2,53C56.8,47.5,63,43,69.7,39.5c6.8,-3.6,14,-6.2,21.6,-7.8" class="g1_1"/></g><path d="M90.8,16.5V53h29.4V16.2M90.7,204.8V188m29.8,16.8V188M96.2,104.3c2.1,-3.5,5.9,-5.7,10,-5.7c4.1,0,7.8,2.2,9.9,5.7M96.2,115.1c2,3.5,5.9,5.7,10,5.6c3.7,-.1,7.1,-2,9.1,-5.1M82.4,104.7l13.6,.2l3.3,1.9H114l3.4,-1.9h13.1v12H116.8l-4.2,-4.2H99.5l-3.2,3.2l-13.6,-.2l-.3,-11ZM125.1,117.4V105.8m-37.2,10V104.2m25.4,8.6v-5m-13.1,5.1v-5" class="g1_1"/><g clip-path="url(#c2_1)"><path d="M140.4,77.3c3.6,-2,7.9,-1.9,11.4,.1c3.6,2.1,5.8,5.8,5.8,9.9" class="g2_1"/></g><g clip-path="url(#c3_1)"><path d="M135,86.7c0,4.1,2.2,7.9,5.8,9.9c3.3,1.7,7.2,1.8,10.5,.1" class="g2_1"/></g><g clip-path="url(#c4_1)"><path d="M128.2,70.8l11.6,7l2,3.2l12.8,7.4l3.8,.1L169.8,95l-6,10.4L151.9,98.6l-1.5,-5.8L139,86.3l-4.4,1.2L123,80.5l5.2,-9.7Z" class="g2_1"/></g><g clip-path="url(#c5_1)"><path d="M158.8,103.2l5.8,-10.1" class="g3_1"/></g><g clip-path="url(#c6_1)"><path d="M127.4,83.2l5.8,-10.1" class="g3_1"/></g><g clip-path="url(#c7_1)"><path d="M150.9,93.2l2.5,-4.3" class="g3_1"/></g><g clip-path="url(#c8_1)"><path d="M139.5,86.8L142,82.4" class="g3_1"/></g><g clip-path="url(#c9_1)"><path d="M53.6,86.4c.1,-4,2.3,-7.8,5.8,-9.8c3.6,-2.1,7.9,-2.1,11.5,-.1" class="g4_1"/></g><g clip-path="url(#c10_1)"><path d="M59,95.8c3.6,2.1,8,2,11.5,-.1c3.2,-1.9,5.2,-5.3,5.3,-9" class="g4_1"/></g><g clip-path="url(#c11_1)"><path d="M41.9,93.7L53.8,87.1L57.6,87L70.3,79.7l2,-3.3L83.7,69.9l5.9,10.3L77.8,87.1L72.1,85.6L60.7,92.1l-1.2,4.4l-11.8,6.6L41.9,93.7Z" class="g4_1"/></g><g clip-path="url(#c12_1)"><path d="M85.2,83.4l-5.7,-10" class="g5_1"/></g><g clip-path="url(#c13_1)"><path d="M52.2,100.6L46.4,90.5" class="g5_1"/></g><g clip-path="url(#c14_1)"><path d="M72.6,85.3L70.2,80.9" class="g5_1"/></g><g clip-path="url(#c15_1)"><path d="M61.4,91.9L58.9,87.6" class="g5_1"/></g><path d="M112.2,146c3.6,2.1,5.7,5.9,5.7,10c0,4.1,-2.1,7.8,-5.7,9.9M101.5,146c-3.6,2,-5.8,5.9,-5.7,10c.1,3.7,2,7.1,5.1,9.1m10.9,-32.9l-.2,13.6l-1.8,3.3v14.7l1.8,3.4v13.1h-12V166.6l4.2,-4.2V149.3l-3.2,-3.2l.2,-13.6l11,-.3ZM99.1,174.9h11.6m-10,-37.2h11.6m-8.5,25.4h5M103.6,150h5M72.5,123.5c3.5,2.1,5.7,5.9,5.7,9.9c0,4.1,-2.2,7.9,-5.7,10M61.7,123.5c-3.5,2,-5.7,5.8,-5.6,9.9c.1,3.7,2,7.2,5.1,9.2M72.1,109.7l-.2,13.5L70,126.6v14.7l1.9,3.3v13.2h-12V144.1l4.2,-4.2V126.8l-3.2,-3.3L61.1,110l11,-.3ZM59.3,152.4H70.9M61,115.2H72.6M64,140.5h5m-5.1,-13h5m84.6,-4c3.5,2.1,5.7,5.9,5.7,9.9c0,4.1,-2.2,7.9,-5.7,10M142.7,123.5c-3.6,2,-5.7,5.8,-5.6,9.9c0,3.7,2,7.2,5.1,9.2m10.9,-32.9l-.3,13.5l-1.8,3.4v14.7l1.8,3.3v13.2H140.9V144.1l4.1,-4.2V126.8l-3.2,-3.3l.3,-13.5l11,-.3ZM140.3,152.4h11.6M142,115.2h11.6M145,140.5h5m-5.1,-13h5" class="g1_1"/><text x="64" y="62" class="s1_1">5</text><text x="139" y="62" class="s1_1">1</text><text x="102" y="94" class="s1_1">6</text><text x="38" y="125" class="s1_1">4</text><text x="123" y="173" class="s1_1">3</text><text x="165" y="131" class="s1_1">2</text></svg>