<svg xmlns="http://www.w3.org/2000/svg" width="228" height="692" viewBox="0 0 227.6 691.8"><path d="M63.5 567.1h102v108.4h-102V567.1z" fill="#FFF"/><path d="M114.7 567.3h50v108.4h-50V567.3z" fill="#858C93"/><path d="M6.1 290.9h216.6c1.7 0 3 1.3 3 3v344.7c0 1.7-1.3 3-3 3H6.1c-1.7 0-3-1.3-3-3V293.9C3.1 292.2 4.5 290.9 6.1 290.9z" fill="#23A7DE"/><path d="M116.2 290.9h108c0.8 0 1.5 1.3 1.5 3v344.7c0 1.7-0.7 3-1.5 3H116.2c-0.8 0-1.5-1.3-1.5-3V293.9C114.7 292.2 115.4 290.9 116.2 290.9z" fill="#1A8ECC"/><path d="M225.7 639.5L225.7 639.5c0 12.3-9.3 22.2-20.8 22.2H23.9c-11.5 0-20.8-9.9-20.8-22.2l0 0" fill="#2BC1FF"/><path d="M114.7 639.5v22.2h90.2c11.5 0 20.8-9.9 20.8-22.2H114.7z" fill="#20A4EA"/><path d="M179.1 611.9h34.6v14.8h-34.6V611.9z" fill="#6AFF07"/><path d="M10.8 673.9H218.8c3.9 0 7 3.1 7 6.9 0 3.8-3.1 6.9-7 6.9H10.8c-3.8 0-7-3.1-7-6.9C3.8 677 6.9 673.9 10.8 673.9z" fill="#EBEEF0"/><path d="M218.8 673.9H114.7v13.9H218.8c3.9 0 7-3.1 7-6.9C225.8 677 222.7 673.9 218.8 673.9z" fill="#A2A7AC"/><path d="M222.7 288.9H6.1c-1.7 0-3 1.3-3 3v4c0-1.7 1.3-3 3-3h216.6c1.7 0 3 1.3 3 3v-4C225.7 290.2 224.4 288.9 222.7 288.9z" fill="#A5E4F6"/><path d="M3.1 454.1h222.6v7.4H3.1V454.1z" fill="#2099D0"/><path d="M3.1 452.1h222.6v7.4H3.1V452.1z" fill="#1CD7FF"/><path d="M114.7 454.1h111v7.4H114.7V454.1z" fill="#1882BF"/><path d="M114.7 452.1h111v7.4H114.7V452.1z" fill="#14B7EA"/><path d="M3.1 444.7h76.1v14.8H3.1V444.7z" fill="#71E9FF"/><path d="M3.1 424.1h222.6v7.4H3.1V424.1z" fill="#2099D0"/><path d="M3.1 422.1h222.6v7.4H3.1V422.1z" fill="#1CD7FF"/><path d="M114.7 424.1h111v7.4H114.7V424.1z" fill="#1882BF"/><path d="M114.7 422.1h111v7.4H114.7V422.1z" fill="#14B7EA"/><path d="M3.1 414.7h76.1v14.8H3.1V414.7z" fill="#71E9FF"/><path d="M3.1 394.1h222.6v7.4H3.1V394.1z" fill="#2099D0"/><path d="M3.1 392.1h222.6v7.4H3.1V392.1z" fill="#1CD7FF"/><path d="M114.7 394.1h111v7.4H114.7V394.1z" fill="#1882BF"/><path d="M114.7 392.1h111v7.4H114.7V392.1z" fill="#14B7EA"/><path d="M3.1 384.7h76.1v14.8H3.1V384.7z" fill="#71E9FF"/><path d="M3.1 364.1h222.6v7.4H3.1V364.1z" fill="#2099D0"/><path d="M3.1 362.1h222.6v7.4H3.1V362.1z" fill="#1CD7FF"/><path d="M114.7 364.1h111v7.4H114.7V364.1z" fill="#1882BF"/><path d="M114.7 362.1h111v7.4H114.7V362.1z" fill="#14B7EA"/><path d="M3.1 354.7h76.1v14.8H3.1V354.7z" fill="#71E9FF"/><linearGradient id="SVGID_1_" gradientUnits="userSpaceOnUse" x1="113.8" y1="4.7" x2="113.8" y2="165.1"><stop offset="0" stop-color="#D1EDFF"/><stop offset="1" stop-color="#A5E3FE"/></linearGradient><path d="M58.5 11.6c-14.4 9.5-30.9 27.7-24.6 59.8C14.4 76.8 0 94.4 0 115.6c0 25.3 20.3 45.8 45.4 45.8h136.8c25.1 0 45.4-20.5 45.4-45.8 0-20.9-12.6-37.6-32.8-43.9 1.7-9.4 0.9-25.7-14.5-37 -8.6-6.3-26.6-12.2-44 1.4C115.6-5.4 73.5 1.7 58.5 11.6z" fill="url(#SVGID_1_)"/><path d="M194.8 74.7c19.6 6.2 32.1 22.2 32.8 42.2 0-0.4 0-0.9 0-1.3 0-20.7-12.5-37.3-32.4-43.8C195.1 72.8 195 73.8 194.8 74.7z" fill="#E3F4FF"/><path d="M58.5 14.6C73.5 4.7 115.6-2.4 136.4 39c17.4-13.6 35.4-7.7 44-1.3 11.3 8.3 14.8 19.3 15.1 28.3 0.4-9.4-2.5-22-15.1-31.3 -8.6-6.3-26.6-12.2-44 1.4C115.6-5.4 73.5 1.7 58.5 11.6c-12.5 8.2-26.6 23-26 47.8C33.1 36.4 46.5 22.5 58.5 14.6z" fill="#E3F4FF"/><path d="M33.9 74.4c-0.2-1-0.4-1.9-0.5-2.8C14.2 77.1 0 94.6 0 115.6c0 0.5 0 0.9 0 1.4C0.8 96.5 14.9 79.7 33.9 74.4z" fill="#E3F4FF"/><path d="M85.9 197.9c0 0 0 0 0 0.1 0 0 0 0 0-0.1v0.1c-0.9 1.1-3.6 4.6-3.7 7.3 -0.1 2.7 2.1 4.2 3.7 4.3v0c0 0 0 0 0 0 0 0 0 0 0 0v0c1.6-0.1 3.7-1.5 3.7-4.3 -0.1-2.7-2.8-6.2-3.7-7.3V197.9zM197.8 197.1c0 0 0 0 0 0 0 0 0 0 0 0v0c1.6-0.1 3.7-1.5 3.7-4.3 0-2.7-2.8-6.2-3.7-7.3v-0.1c0 0 0 0 0 0.1 0 0 0 0 0-0.1v0.1c-0.9 1.1-3.6 4.6-3.7 7.3 -0.1 2.7 2.1 4.2 3.7 4.3V197.1zM65.6 206.7c0 0 0 0.1-0.1 0.1 0 0 0-0.1-0.1-0.1v0.2c-1.3 1.6-5.3 6.6-5.3 10.5 -0.1 4 3 6.1 5.3 6.1v0c0 0 0 0 0.1 0 0 0 0 0 0.1 0v0c2.3-0.1 5.4-2.2 5.3-6.1 -0.1-3.9-4-8.9-5.3-10.5V206.7zM140.2 248.3c0 0 0 0 0.1 0 0 0 0 0 0.1 0v0c2.3-0.1 5.4-2.2 5.3-6.1 -0.1-3.9-4-8.9-5.3-10.5v-0.2c0 0 0 0.1-0.1 0.1 0 0 0-0.1-0.1-0.1v0.2c-1.3 1.6-5.3 6.6-5.3 10.5 -0.1 4 3 6.1 5.3 6.1V248.3zM169.8 213.8c0 0 0 0.1-0.1 0.1 0 0 0-0.1-0.1-0.1v0.2c-1.3 1.6-5.3 6.6-5.3 10.5 -0.1 4 3 6.1 5.3 6.1v0c0 0 0 0 0.1 0 0 0 0 0 0.1 0v0c2.3-0.1 5.4-2.2 5.3-6.1 -0.1-3.9-4-8.9-5.3-10.5V213.8zM126.3 192.6c0 0 0 0.1-0.1 0.1 0 0 0-0.1-0.1-0.1v0.2c-1.3 1.6-5.3 6.6-5.3 10.5 -0.1 4 3 6.1 5.3 6.1v0c0 0 0 0 0.1 0 0 0 0 0 0.1 0v0c2.3-0.1 5.4-2.2 5.3-6.1 -0.1-3.9-4-8.9-5.3-10.5V192.6zM82.7 240.4c0 0 0 0.1-0.1 0.1 0 0 0-0.1-0.1-0.1v0.2c-1.3 1.6-5.3 6.6-5.3 10.5 -0.1 4 3 6.1 5.3 6.1v0c0 0 0 0 0.1 0 0 0 0 0 0.1 0v0c2.3-0.1 5.4-2.2 5.3-6.1 -0.1-3.9-4-8.9-5.3-10.5V240.4zM39.2 208.5c0 0 0 0.1-0.1 0.1 0 0 0-0.1-0.1-0.1v0.2c-1.3 1.6-5.3 6.6-5.3 10.5 -0.1 4 3 6.1 5.3 6.1v0c0 0 0 0 0.1 0 0 0 0 0 0.1 0v0c2.3-0.1 5.4-2.2 5.3-6.1 -0.1-3.9-4-8.9-5.3-10.5V208.5zM112.3 259.8c0 0 0 0.1-0.1 0.1 0 0 0-0.1-0.1-0.1v0.2c-1.3 1.6-5.3 6.6-5.3 10.5 -0.1 4 3 6.1 5.3 6.1v0c0 0 0 0 0.1 0 0 0 0 0 0.1 0v0c2.3-0.1 5.4-2.2 5.3-6.1 -0.1-3.9-4-8.9-5.3-10.5V259.8zM154.3 200.7v-0.1c0 0 0 0 0 0.1 0 0 0 0 0-0.1v0.1c-0.9 1.2-3.8 4.9-3.9 7.7 -0.1 2.9 2.2 4.5 3.9 4.5v0c0 0 0 0 0 0s0 0 0 0v0c1.7-0.1 3.9-1.6 3.8-4.5C158.1 205.6 155.2 201.9 154.3 200.7zM115.4 237.8c0 0 0 0 0 0.1 0 0 0 0 0-0.1v0.1c-0.9 1.2-3.8 4.9-3.9 7.7 -0.1 2.9 2.2 4.5 3.9 4.5v0c0 0 0 0 0 0 0 0 0 0 0 0v0c1.7-0.1 3.9-1.6 3.8-4.5 -0.1-2.9-2.9-6.5-3.8-7.7V237.8zM162.1 248.4c0 0 0 0 0 0.1 0 0 0 0 0-0.1v0.1c-0.9 1.2-3.8 4.9-3.9 7.7 -0.1 2.9 2.2 4.5 3.9 4.5v0c0 0 0 0 0 0 0 0 0 0 0 0v0c1.7-0.1 3.9-1.6 3.8-4.5 -0.1-2.9-2.9-6.5-3.8-7.7V248.4zM53.2 188.2c0 0 0 0 0 0.1 0 0 0 0 0-0.1v0.1c-0.9 1.2-3.8 4.9-3.9 7.7 -0.1 2.9 2.2 4.5 3.9 4.5v0c0 0 0 0 0 0 0 0 0 0 0 0v0c1.7-0.1 3.9-1.6 3.8-4.5 -0.1-2.9-2.9-6.5-3.8-7.7V188.2zM48.5 237.8c0 0 0 0 0 0.1 0 0 0 0 0-0.1v0.1c-0.9 1.2-3.8 4.9-3.9 7.7 -0.1 2.9 2.2 4.5 3.9 4.5v0c0 0 0 0 0 0 0 0 0 0 0 0v0c1.7-0.1 3.9-1.6 3.8-4.5 -0.1-2.9-2.9-6.5-3.8-7.7V237.8zM101.4 214.7c0 0 0 0 0 0.1 0 0 0 0 0-0.1v0.1c-0.9 1.2-3.8 4.9-3.9 7.7 -0.1 2.9 2.2 4.5 3.9 4.5v0c0 0 0 0 0 0 0 0 0 0 0 0v0c1.7-0.1 3.9-1.6 3.8-4.5 -0.1-2.9-2.9-6.5-3.8-7.7V214.7zM174.5 188.2c0 0 0 0 0 0.1 0 0 0 0 0-0.1v0.1c-0.9 1.2-3.8 4.9-3.9 7.7 -0.1 2.9 2.2 4.5 3.9 4.5v0c0 0 0 0 0 0 0 0 0 0 0 0v0c1.7-0.1 3.9-1.6 3.8-4.5 -0.1-2.9-2.9-6.5-3.8-7.7V188.2zM185.4 255.5c0 0 0 0 0 0.1 0 0 0 0 0-0.1v0.1c-0.9 1.2-3.8 4.9-3.9 7.7 -0.1 2.9 2.2 4.5 3.9 4.5v0c0 0 0 0 0 0 0 0 0 0 0 0v0c1.7-0.1 3.9-1.6 3.8-4.5 -0.1-2.9-2.9-6.5-3.8-7.7V255.5zM199.4 223.7v-0.1c0 0 0 0 0 0.1 0 0 0 0 0-0.1v0.1c-0.9 1.2-3.8 4.9-3.9 7.7 -0.1 2.9 2.2 4.5 3.9 4.5v0c0 0 0 0 0 0 0 0 0 0 0 0v0c1.7-0.1 3.9-1.6 3.8-4.5C203.2 228.6 200.3 224.9 199.4 223.7zM28.3 246.8c0 0 0 0 0 0.1 0 0 0 0 0-0.1v0.1c-0.9 1.2-3.8 4.9-3.9 7.7 -0.1 2.9 2.2 4.5 3.9 4.5v0c0 0 0 0 0 0s0 0 0 0v0c1.7-0.1 3.9-1.6 3.8-4.5 -0.1-2.9-2.9-6.5-3.8-7.7V246.8zM61 262.7c0 0 0 0 0 0.1 0 0 0 0 0-0.1v0.1c-0.9 1.2-3.8 4.9-3.9 7.7 -0.1 2.9 2.2 4.5 3.9 4.5v0c0 0 0 0 0 0 0 0 0 0 0 0v0c1.7-0.1 3.9-1.6 3.8-4.5 -0.1-2.9-2.9-6.5-3.8-7.7V262.7zM142.3 271.5c0 0 0 0 0 0.1 0 0 0 0 0-0.1v0.1c-0.9 1.2-3.8 4.9-3.9 7.7 -0.1 2.9 2.2 4.5 3.9 4.5v0c0 0 0 0 0 0 0 0 0 0 0 0v0c1.7-0.1 3.9-1.6 3.8-4.5 -0.1-2.9-2.9-6.5-3.8-7.7V271.5z" fill="#9DE2FF"/><path d="M136.1 104.7l-16.1 39.5h31.9l-67.6 44.1 15.8-44.1H75.7l16.1-39.6L136.1 104.7z" fill="#FFC000"/><polygon points="120 144.1 118.8 147.1 147.4 147.1 152 144.1 " fill="#FFEB00"/><polygon points="90.5 107.5 134.9 107.7 136.1 104.7 91.8 104.5 " fill="#FFEB00"/></svg>