<svg width="32" height="32" viewBox="0 0 210.234 134.925" xmlns="http://www.w3.org/2000/svg"><path d="M159.188 106.29c0-3.696-.629-3.535 22.473-5.768 12.214-1.18 14.298-1.155 15.276.188 3.245 4.451-1.686 5.847-28.331 8.023l-9.418.769zm-2.43-18.342c0-3.069.011-3.073 11.24-4.345 24.702-2.798 25.975-2.797 26.815.031.413 1.392.358 2.871-.12 3.286-.99.857-27.835 4.1-33.936 4.1-3.593 0-4-.311-4-3.072zm-1.879-15.572c-2.038-5.443-2.323-5.32 17.372-7.501 10.193-1.129 18.794-1.822 19.113-1.54.32.281.73 1.656.911 3.054.4 3.073-1.538 3.562-22.568 5.694-10.242 1.038-14.517 1.122-14.828.293zm-3.164-18.75c-.1-1.224-.237-2.826-.304-3.559-.084-.917 4.803-1.89 15.676-3.122 22.081-2.502 22.082-2.502 22.795.784.77 3.553-.83 4.062-17.935 5.71-7.351.708-14.87 1.541-16.708 1.851-2.745.463-3.375.165-3.524-1.663zm-2.763-18.879c-.45-1.581-.51-3.147-.131-3.48.64-.565 31.48-4.36 36.19-4.454 1.56-.03 2.126.808 2.126 3.15 0 3.693.066 3.672-17.012 5.373-6.35.633-13.527 1.406-15.95 1.718-3.994.515-4.48.3-5.223-2.307zM136.1 17.182c0-2.739.53-3.24 3.949-3.735 4.176-.603 22.543-2.739 23.557-2.739.328 0 .425 1.566.216 3.48l-.38 3.48-10.937 1.247c-16.681 1.901-16.405 1.93-16.405-1.733z" fill="#e59105"/><path d="M25.745 120.741c.32-2.924.96-3.562 4.027-4.02 3.359-.504 3.67-.925 3.95-5.36.167-2.647-.38-8.909-1.216-13.915l-1.519-9.102-5.035-.324c-4.257-.274-5.124-.733-5.61-2.97-.315-1.456-.058-2.928.573-3.271 2.182-1.188 25.874-3.477 26.884-2.597.557.486.83 2.023.607 3.416-.295 1.836-1.302 2.625-3.66 2.865-5.636.574-6.015 1.986-4.05 15.108.989 6.61 2.112 12.466 2.496 13.013.384.547 2.853.995 5.487.995 4.494 0 4.789.195 4.789 3.164 0 2.739-.531 3.24-3.95 3.735-4.176.603-22.543 2.739-23.557 2.739-.328 0-.425-1.564-.216-3.476zm51.29-3.396c-1.707-3.918.02-5.416 7.271-6.309 8.61-1.06 10.478-.54 10.478 2.909 0 2.349-.646 2.718-5.772 3.304-3.175.363-7.015.886-8.533 1.163-1.72.313-3.019-.089-3.445-1.067zm40.837-6.924c0-3.009.202-3.107 7.864-3.83 8.907-.84 10.364-.406 10.364 3.093 0 2.026-.824 2.593-4.557 3.137-2.507.365-6.608.67-9.114.676-4.215.01-4.557-.22-4.557-3.076zm-52.296-.928c-.024-.442-.776-5.622-1.671-11.512-.896-5.89-1.39-11.07-1.1-11.511.29-.442 2.136-.803 4.101-.803 3.145 0 3.574.378 3.574 3.149 0 3.753 1.621 4.832 6.794 4.525 3.27-.194 3.94.19 4.453 2.557.607 2.8-.107 3.352-6.69 5.175-1.563.433-2.126 1.733-2.126 4.906 0 4.083-.198 4.317-3.646 4.317-2.005 0-3.665-.362-3.69-.803zm40.822-6.96c-.685-3.68-3.108-19.866-3.108-20.76 0-.289 1.773-.374 3.94-.19l3.942.336 1.522 10.708c.837 5.89 1.268 11.31.958 12.047-.31.736-1.924 1.339-3.585 1.339-2.466 0-3.14-.64-3.669-3.48zM72.544 81.773c-.467-.411-.849-1.863-.849-3.226 0-2.774 1.828-3.382 11.545-3.84 5.8-.272 6.093-.153 6.456 2.622.413 3.162-.015 3.343-10.772 4.564-3.043.345-5.914.291-6.38-.12zm40.688-7.007c.383-3.52.465-3.565 8.183-4.403 8.14-.884 9.764-.27 9.805 3.706.02 1.846-1.574 2.3-12.52 3.573l-5.856.681zm-95.284-7.756c-.754-3.476-.48-3.624 8.773-4.739 7.309-.88 7.537-.834 8.666 1.782.637 1.478.728 3.048.202 3.49-.526.44-4.573 1.134-8.994 1.54-7.977.733-8.041.718-8.647-2.073zm41.06-5.073c-1.643-8.557-5.594-38.69-5.127-39.1.283-.25 4.407-.741 9.164-1.093l8.65-.639v3.368c0 2.852-.452 3.368-2.95 3.368-3.882 0-6.914 2.78-6.216 5.699.306 1.283 1.164 6.659 1.906 11.947 1.591 11.339 2.556 12.75 8.094 11.835 3.829-.633 4.027-.509 4.027 2.532 0 3.933-.084 3.977-9.342 4.906l-7.519.755zm41.38-2.108c-.888-2.561-3.256-22.635-2.725-23.103.28-.246 4.183-.907 8.676-1.467 4.492-.56 8.652-1.283 9.243-1.605.591-.322 1.075-2.485 1.075-4.806 0-3.96.22-4.22 3.59-4.22 3.868 0 4.416 1.187 5.193 11.237l.33 4.276-8.4.825c-10.193 1-12.04 2.111-10.956 6.588 1.089 4.494 2.739 6.053 5.825 5.506 1.427-.254 5.404-.74 8.837-1.082 5.995-.596 6.274-.507 7.058 2.243 1.063 3.732-.047 4.242-11.177 5.13-5.048.404-10.726 1.007-12.619 1.34-2.33.411-3.605.133-3.95-.862zm-63.554-4.865l-1.124-4.1-9.89.321-9.89.322-.674-3.802c-2.134-12.035-2.207-11.186 1.031-11.903 3.912-.865 5.586.119 5.586 3.282 0 3.63 1.854 4.284 12.145 4.284h9.106l1.036 6.768c.57 3.722.846 6.935.613 7.14-.233.206-1.862.692-3.62 1.08-2.92.647-3.293.354-4.32-3.392zm41.605-2.762c-1.101-3.132-3.108-21.339-2.455-22.27.394-.562 2.013-1.02 3.6-1.02 3.277 0 3.745.99 4.807 10.172.408 3.534 1.048 8.232 1.421 10.441.661 3.91.58 4.016-3.111 4.016-2.085 0-4.003-.603-4.262-1.339zM23.09 28.998c0-3.055.18-3.145 7.802-3.864 8.824-.833 10.425-.347 10.425 3.16 0 2.125-.785 2.564-5.638 3.15-11.069 1.337-12.59 1.042-12.59-2.446zm72.59-5.007c-.492-.434-.895-1.884-.895-3.223 0-2.092.807-2.528 5.772-3.115 11.223-1.328 11.815-1.256 12.254 1.478.224 1.393-.05 2.91-.607 3.372-1.43 1.182-15.439 2.444-16.523 1.488z" fill="#9cb606"/><path d="M159.374 110.358c-1.589-.925-2.627-5.81-1.558-7.334 1.325-1.89 37.868-5.808 39.954-4.284 2.013 1.47 1.95 7.194-.087 7.883-2.945.996-37.267 4.342-38.31 3.735zm28.36-3.637c9.909-1.27 11.772-2.486 9.203-6.011-.978-1.343-3.062-1.369-15.276-.188-23.102 2.233-22.473 2.072-22.473 5.769v3.21l9.418-.768c5.18-.423 13.787-1.329 19.127-2.012zm-31.346-14.329c-.308-.46-.941-2.402-1.407-4.317-.615-2.527-.38-3.639.856-4.057.936-.316 9.866-1.465 19.843-2.553 16.49-1.798 18.279-1.824 19.66-.29 1.81 2.012 2.003 6.243.327 7.156-.655.357-7.9 1.349-16.101 2.204-8.2.855-16.644 1.811-18.764 2.124-2.12.313-4.107.193-4.414-.267zm22.9-3.044c7.993-.92 14.925-2.012 15.404-2.428.48-.415.534-1.894.12-3.285-.839-2.829-2.112-2.83-26.814-.032-11.23 1.272-11.24 1.276-11.24 4.345 0 2.76.406 3.073 4 3.073 2.2 0 10.539-.753 18.53-1.673zm-26.255-17.25c-2.293-5.315-1.273-6.144 9.204-7.48 5.34-.682 14.437-1.583 20.214-2.004l10.504-.764.86 3.447c.49 1.966.333 3.912-.365 4.527-.865.762-32.058 4.875-38.849 5.122-.184.007-.89-1.275-1.568-2.848zm35.32-2.32c3.543-.706 4.197-1.271 3.922-3.39-.181-1.397-.591-2.772-.91-3.053-.32-.282-8.921.411-19.114 1.54-19.695 2.181-19.41 2.058-17.372 7.5.435 1.163 23.627-.638 33.473-2.598zm-37.555-14.975c-1.972-3.246-1.617-6.394.795-7.048 2.788-.757 31.486-3.85 35.715-3.85 2.699 0 3.432.603 4.13 3.401 1.204 4.832-.736 5.664-16.711 7.173-7.544.713-15.715 1.57-18.157 1.906-3.647.501-4.68.218-5.772-1.582zm21.15-1.364c17.104-1.648 18.704-2.157 17.934-5.71-.713-3.286-.714-3.286-22.795-.784-10.873 1.232-15.76 2.205-15.676 3.122.067.733.203 2.335.304 3.56.15 1.828.78 2.126 3.524 1.663 1.838-.31 9.357-1.143 16.708-1.851zm-24.174-16.583c-.406-.931-.738-2.85-.738-4.263 0-3.066.231-3.125 20.622-5.287 20.757-2.2 20.246-2.244 21.165 1.807.426 1.878.233 3.891-.43 4.475-1.061.936-30.406 4.808-37.277 4.92-1.433.023-2.936-.72-3.342-1.652zm22.35-1.52c17.08-1.701 17.013-1.68 17.013-5.373 0-2.342-.566-3.18-2.126-3.15-4.71.094-35.55 3.889-36.19 4.453-.378.334-.32 1.9.131 3.481.743 2.608 1.229 2.822 5.224 2.307 2.422-.312 9.6-1.085 15.949-1.718zm-34.43-14.633c-.445-.393-.81-2.311-.81-4.263 0-4.085-.377-3.955 16.833-5.796 6.25-.67 11.817-.808 12.37-.308 1.993 1.8 2.574 6.403.951 7.537-.878.614-6.555 1.662-12.616 2.33-12.722 1.401-15.606 1.488-16.727.5zm16.81-1.788l10.937-1.246.38-3.48c.21-1.915.113-3.48-.215-3.48-1.014 0-19.381 2.135-23.557 2.738-3.418.494-3.95.996-3.95 3.735 0 3.664-.275 3.634 16.406 1.733z" fill="#a0742c"/><path d="M23.843 121.922c-.912-4.02.847-6.272 4.9-6.272 4.099 0 4.482-1.74 2.88-13.072-1.973-13.968-1.83-13.699-7.346-13.699-4.464 0-4.77-.213-5.547-3.865-.535-2.513-.326-4.136.597-4.638 2.613-1.423 28.244-3.546 29.496-2.443.647.57 1 2.662.784 4.648-.334 3.073-.936 3.693-4.038 4.157-3.158.472-3.686 1.045-3.95 4.288-.168 2.058.38 7.839 1.215 12.845l1.52 9.102 5.036.324c4.626.297 5.085.602 5.647 3.748.338 1.892-.012 3.956-.782 4.614-1.215 1.036-20.716 3.629-27.298 3.629-1.662 0-2.573-.985-3.114-3.366zm12.22 1.21c18.007-2.053 17.405-1.867 17.405-5.389 0-2.97-.295-3.164-4.79-3.164-2.633 0-5.102-.448-5.486-.995-.384-.547-1.507-6.403-2.497-13.013-1.964-13.122-1.585-14.534 4.052-15.108 2.357-.24 3.364-1.03 3.66-2.865.223-1.393-.05-2.93-.608-3.416-1.01-.88-24.702 1.409-26.884 2.597-.63.343-.888 1.815-.572 3.27.485 2.238 1.352 2.697 5.609 2.971l5.035.324 1.52 9.102c.835 5.006 1.382 11.268 1.215 13.915-.28 4.435-.591 4.856-3.95 5.36-3.067.458-3.706 1.096-4.027 4.02-.209 1.912-.112 3.476.216 3.476.329 0 4.875-.488 10.103-1.084zm39.994-4.433c-.282-.793-.86-2.827-1.283-4.519-.709-2.833-1.105-3.028-5.019-2.469-3.582.513-4.419.24-5.331-1.742-1.486-3.228-4.008-22.947-3.1-24.242.404-.576 2.69-1.371 5.079-1.766 4.123-.682 4.31-.898 3.691-4.259-.89-4.835.79-5.727 11.423-6.064l9.014-.286v8.567l-9.017 1.07c-9.44 1.122-10.6 1.929-9.307 6.472.635 2.227 1.471 2.63 5.457 2.63 4.974 0 6.183 1.166 6.183 5.957 0 1.933-.828 2.73-3.342 3.215-5.845 1.129-6.38 1.427-6.38 3.558 0 5.182.813 5.515 11.674 4.779l10.2-.69v4.368c0 4.962-.156 5.043-11.84 6.147-5.845.553-7.706.386-8.102-.726zm12.955-1.45c5.126-.586 5.772-.955 5.772-3.304 0-3.45-1.868-3.968-10.478-2.909-5.411.666-7.212 1.337-7.533 2.807-.724 3.313.734 5.11 3.706 4.569 1.518-.277 5.358-.8 8.533-1.163zM72.91 105.98c0-3.173.563-4.473 2.126-4.906 6.583-1.823 7.297-2.376 6.69-5.175-.514-2.367-1.182-2.75-4.453-2.557-5.173.307-6.794-.772-6.794-4.525 0-2.771-.429-3.15-3.574-3.15-1.965 0-3.81.362-4.101.804-.29.442.204 5.622 1.1 11.511.895 5.89 1.647 11.07 1.67 11.512.025.441 1.685.803 3.69.803 3.448 0 3.646-.234 3.646-4.317zm14.354-25.227c2.234-.409 2.733-1.111 2.43-3.422-.362-2.775-.656-2.894-6.455-2.621-9.717.457-11.545 1.065-11.545 3.84 0 1.362.382 2.814.849 3.225.787.693 8.135.183 14.721-1.022zm30.092 33.626c-.273-.773-.827-2.73-1.23-4.35-.648-2.608-1.282-2.945-5.546-2.945-5.475 0-5.244.42-7.264-13.195-1.943-13.099-1.915-13.218 3.315-14.34 4.136-.886 4.53-1.28 4.267-4.268-.408-4.63 1.812-5.736 12.021-5.99l8.927-.221.37 3.924c.421 4.45.164 4.584-10.984 5.7-3.833.384-7.3 1.173-7.707 1.752-.873 1.245 1.85 22.67 3.11 24.466.63.9 3.137.96 9.253.223 9.738-1.174 11.426-.478 11.426 4.71 0 3.891.501 3.698-13.68 5.29-4.222.475-5.915.27-6.278-.756zm14.186-1.557c3.733-.544 4.557-1.11 4.557-3.137 0-3.499-1.457-3.934-10.364-3.093-7.662.723-7.864.821-7.864 3.83 0 2.856.342 3.087 4.557 3.076 2.506-.007 6.607-.31 9.114-.676zm-17.89-8.147c.31-.736-.122-6.157-.959-12.047l-1.522-10.708-3.941-.336c-2.168-.184-3.941-.099-3.941.19 0 .894 2.423 17.08 3.108 20.76.528 2.84 1.203 3.48 3.669 3.48 1.661 0 3.275-.603 3.585-1.339zm14.244-28.263c3.38-.558 4.299-2.75 2.31-5.512-.752-1.044-2.9-1.175-8.792-.535-7.718.838-7.8.882-8.183 4.403l-.388 3.557 5.856-.68c3.22-.375 7.36-.93 9.197-1.233zm34.709 34.224c.877-.31 1.925-.271 2.329.085.404.356-.314.609-1.595.562-1.416-.051-1.704-.305-.734-.647zm9.721-1.07c.877-.31 1.925-.272 2.33.084.403.356-.315.609-1.596.562-1.415-.051-1.703-.305-.734-.647zm8.506-10.709c.878-.31 1.926-.271 2.33.085.403.355-.314.608-1.595.562-1.416-.051-1.704-.305-.735-.647zm9.722-1.07c.877-.31 1.925-.272 2.329.084.404.356-.314.609-1.595.562-1.416-.051-1.704-.305-.734-.647zM161.39 92.43c.877-.31 1.925-.271 2.329.085.403.355-.314.608-1.595.562-1.416-.051-1.704-.305-.734-.647zm9.72-1.07c.878-.31 1.926-.272 2.33.084.404.356-.314.609-1.595.562-1.415-.051-1.703-.305-.734-.647zm-16.688-2.036c.059-1.247.347-1.5.734-.647.351.773.308 1.697-.095 2.053-.404.356-.691-.277-.639-1.406zm25.195-8.673c.877-.31 1.925-.271 2.33.084.403.356-.315.61-1.596.563-1.415-.052-1.703-.305-.734-.647zm9.722-1.071c.877-.31 1.925-.271 2.329.085.403.355-.314.609-1.595.562-1.416-.051-1.704-.305-.734-.647zm-29.165-5.354c.878-.31 1.926-.271 2.33.084.403.356-.314.61-1.595.563-1.416-.051-1.704-.305-.735-.647zm9.722-1.071c.877-.31 1.925-.271 2.329.085.404.355-.314.608-1.595.562-1.416-.051-1.704-.305-.734-.647zM17.519 69.898c-.947-.835-1.722-2.89-1.722-4.569 0-3.33.467-3.502 13.13-4.879l6.445-.7-.37-3.907c-.412-4.36-.695-4.43-12.814-3.102-7.818.856-8.596-.049-9.086-10.57l-.343-7.358 4.253-.54c3.973-.506 4.254-.8 4.254-4.456 0-2.153.306-4.19.68-4.527.375-.336 4.451-1.082 9.058-1.657 9.733-1.215 11.527-.471 11.527 4.781 0 3.291-.32 3.564-4.86 4.152-15.695 2.033-14.583 1.661-14.583 4.876 0 4.53 1.959 5.28 10.915 4.18 4.333-.533 8.52-.751 9.307-.485.808.273 1.809 4.055 2.303 8.705.942 8.856.314 10.075-5.208 10.108-2.829.017-3.144.66-2.771 5.641.255 3.408-.356 3.688-10.697 4.913-6.07.72-8.059.591-9.418-.606zm18.07-2.355c.526-.441.435-2.011-.202-3.489-1.129-2.616-1.357-2.663-8.666-1.782-9.252 1.115-9.527 1.263-8.773 4.739.606 2.79.67 2.806 8.647 2.073 4.42-.406 8.468-1.1 8.994-1.54zm9.184-10.265c.233-.206-.043-3.42-.613-7.141l-1.036-6.768h-9.106c-10.29 0-12.145-.654-12.145-4.284 0-3.163-1.674-4.147-5.586-3.282-3.238.717-3.165-.132-1.03 11.903l.673 3.802 9.89-.322 9.89-.321 1.124 4.1c1.026 3.746 1.4 4.039 4.32 3.393 1.757-.389 3.386-.875 3.619-1.08zm-9.095-25.834c4.853-.586 5.638-1.025 5.638-3.15 0-3.507-1.601-3.993-10.425-3.16-7.621.72-7.803.81-7.803 3.864 0 3.488 1.521 3.783 12.59 2.446zm22.075 32.538c-.966-3.75-5.495-36.33-5.498-39.555-.002-2.573.547-2.947 5.162-3.521 2.84-.353 7.318-.744 9.95-.869 4.579-.217 4.83-.057 5.877 3.732 1.02 3.696 1.428 3.98 6.152 4.283l5.059.325 1.414 9.638c2.364 16.107 2.343 16.234-2.933 17.342-4.313.907-4.557 1.185-4.557 5.185 0 4.187-.051 4.233-5.468 4.959-10.981 1.47-14.477 1.12-15.158-1.519zm17.892-.452c.501-.263.911-1.916.911-3.675 0-3.04-.198-3.165-4.027-2.532-5.538.915-6.503-.496-8.094-11.835-.742-5.288-1.6-10.664-1.906-11.947-.698-2.92 2.334-5.7 6.215-5.7 2.5 0 2.951-.515 2.951-3.367v-3.368l-8.65.64c-4.757.35-8.881.842-9.164 1.091-.467.412 3.484 30.544 5.127 39.101l.687 3.578 7.52-.755c4.135-.415 7.928-.97 8.43-1.231zm.436-9.372c.366-.839-.062-6.742-.95-13.117-1.55-11.144-1.73-11.604-4.65-11.87-6.198-.566-6.609.544-4.913 13.294.85 6.387 1.788 11.974 2.085 12.415.964 1.433 7.743.852 8.428-.722zm9.731-4.632c-.373-2.209-1.013-6.907-1.421-10.44-1.062-9.182-1.53-10.173-4.807-10.173-1.587 0-3.206.458-3.6 1.02-.653.931 1.354 19.138 2.455 22.27.26.736 2.177 1.339 4.262 1.339 3.69 0 3.772-.106 3.111-4.016zm92.591 12.922c.877-.31 1.925-.272 2.33.084.403.356-.315.61-1.596.563-1.415-.052-1.703-.306-.734-.647zM99.077 60.77C98.331 58.737 96 41.826 96 38.452c0-3.341.765-3.66 11.316-4.718 7.541-.757 8.915-1.908 7.636-6.398-.731-2.568-1.037-2.636-10.764-2.407l-10.01.236-.372-3.925c-.425-4.497-.158-4.629 11.604-5.74 8.11-.766 7.848-.911 9.356 5.145.657 2.638 1.23 2.948 5.037 2.722 2.515-.15 4.705.327 5.282 1.149 1.28 1.825 2.833 15.172 1.867 16.043-.408.367-4.669 1.15-9.468 1.739l-8.725 1.07v7.497l9.617-.315c10.434-.342 11.597.197 11.63 5.38.021 3.31-.19 3.382-14.955 5.083-12.384 1.427-15.377 1.381-15.973-.243zm17.88-1.417c11.13-.889 12.24-1.399 11.177-5.13-.784-2.751-1.063-2.84-7.058-2.244-3.433.342-7.41.828-8.837 1.082-3.086.547-4.736-1.012-5.825-5.506-1.085-4.477.763-5.588 10.955-6.588l8.402-.825-.33-4.276c-.778-10.05-1.326-11.237-5.194-11.237-3.37 0-3.59.26-3.59 4.22 0 2.321-.484 4.484-1.075 4.806-.591.322-4.75 1.044-9.243 1.605-4.493.56-8.397 1.22-8.676 1.467-.531.468 1.837 20.542 2.725 23.103.345.995 1.62 1.273 3.95.862 1.893-.333 7.571-.936 12.619-1.34zm-4.754-36.85c.558-.462.831-1.98.607-3.372-.439-2.734-1.03-2.806-12.254-1.478-4.965.587-5.772 1.023-5.772 3.115 0 1.339.403 2.789.896 3.223 1.084.956 15.094-.306 16.523-1.488zm75.845 38.896c.836-.297 2.203-.297 3.038 0 .836.297.152.54-1.519.54-1.67 0-2.354-.243-1.519-.54zm-29.088-5.376c.877-.31 1.925-.272 2.33.084.403.356-.315.61-1.596.563-1.415-.052-1.703-.305-.734-.647zm9.722-1.071c.877-.31 1.925-.271 2.329.084.403.356-.314.61-1.595.563-1.416-.052-1.704-.305-.734-.647zm8.506-10.708c.877-.31 1.925-.272 2.329.084.404.356-.314.609-1.595.563-1.416-.052-1.704-.306-.734-.647zm9.721-1.071c.877-.31 1.926-.272 2.33.084.403.356-.315.61-1.596.563-1.415-.052-1.703-.305-.734-.647zm-29.164-5.354c.877-.31 1.925-.272 2.33.084.403.356-.315.609-1.596.563-1.415-.052-1.703-.306-.734-.647zm9.721-1.071c.878-.31 1.926-.272 2.33.084.403.356-.314.61-1.595.563-1.416-.052-1.704-.305-.735-.647zm9.722-1.071c.877-.31 1.925-.271 2.329.084.404.356-.314.61-1.595.563-1.416-.052-1.704-.305-.734-.647zm8.734-.76c0-.232.849-.708 1.886-1.059 1.081-.366 1.569-.186 1.143.421-.713 1.017-3.03 1.505-3.03.638zm-30.607-6.736c.877-.31 1.925-.271 2.329.085.404.355-.314.608-1.595.562-1.416-.051-1.704-.305-.734-.647zm20.658-2.142c.877-.309 1.925-.27 2.329.085.404.356-.314.609-1.595.562-1.416-.051-1.704-.305-.734-.647zm-19.443-6.425c.877-.309 1.925-.27 2.329.085.404.356-.314.609-1.595.562-1.416-.051-1.704-.305-.734-.647zm-22.669-3.551c0-1.473.276-2.075.613-1.339.337.736.337 1.94 0 2.677-.337.736-.613.134-.613-1.338zm10.517-5.015c.877-.31 1.925-.272 2.33.084.403.356-.315.61-1.596.563-1.415-.052-1.703-.305-.734-.647z" fill="#6c902d"/><path d="M16.603 133.34c-.99-.872-2.127-3.402-2.528-5.622C12.328 118.041 0 27.362 0 24.188c0-2.024.929-4.25 2.193-5.259 1.706-1.36 19.803-3.654 81.588-10.339C127.45 3.866 164.411 0 165.92 0c3.343 0 30.648 18.502 32.159 21.792 1.133 2.467 12.17 81.462 12.155 87-.004 1.822-.975 4.084-2.156 5.026-1.653 1.318-22.793 3.943-91.876 11.41-49.35 5.333-91.545 9.697-93.765 9.697-2.22 0-4.845-.713-5.834-1.585zm99.694-10.2c49.125-5.303 89.809-9.909 90.408-10.235 1.89-1.03 1.185-8.488-4.777-50.525-4.545-32.051-6.233-41.247-7.763-42.298-20.534-14.098-26.71-17.94-28.837-17.94-4.676 0-160.565 17.06-161.74 17.7-.637.347-1.154 2.409-1.15 4.583.01 5.66 14.126 105.782 15.111 107.187.452.644 2.759 1.171 5.126 1.171 2.367 0 44.497-4.339 93.622-9.642z" fill="#2b5792"/><path d="M23.761 125.728c-1.374-1.211-1.897-3.165-1.647-6.156.335-4.005.711-4.442 4.378-5.098 2.206-.395 4.228-.909 4.494-1.143.445-.392-.975-11.716-2.491-19.866-.597-3.208-.9-3.399-4.421-2.778-2.865.504-4.178.187-5.421-1.311-2.284-2.753-2.138-9.737.221-10.535 3.327-1.125 28.003-3.215 29.997-2.54 2.273.768 3.901 6.235 2.783 9.342-.466 1.293-1.848 2.172-3.433 2.182-5.612.035-5.891.894-4.195 12.918l1.574 11.16h4.44c2.441 0 4.782.3 5.2.67 1.602 1.41 2.153 8.45.776 9.912-.865.919-6.22 1.992-13.828 2.772-6.829.7-13.316 1.492-14.415 1.759-1.099.267-2.904-.312-4.012-1.288zm17.322-1.66c6.478-.67 12.405-1.755 13.172-2.41.77-.657 1.12-2.721.782-4.613-.562-3.146-1.02-3.45-5.647-3.748l-5.036-.324-1.52-9.102c-.836-5.006-1.383-10.787-1.215-12.845.264-3.243.792-3.816 3.95-4.288 3.102-.464 3.704-1.084 4.038-4.157.216-1.986-.137-4.078-.784-4.648-1.252-1.103-26.883 1.02-29.496 2.443-.923.502-1.132 2.125-.597 4.638.778 3.652 1.083 3.865 5.547 3.865 5.517 0 5.373-.269 7.346 13.7 1.602 11.332 1.219 13.071-2.88 13.071-4.053 0-5.812 2.251-4.9 6.272.886 3.9.622 3.867 17.24 2.146zm33.99-3.725c-.337-.52-.97-2.27-1.41-3.89-.675-2.488-1.431-2.945-4.88-2.945-2.245 0-4.622-.602-5.283-1.338-1.276-1.422-3.956-18.121-3.956-24.653 0-3.603.318-3.948 4.253-4.598 3.98-.658 4.253-.966 4.253-4.795 0-4.661.236-4.783 12.152-6.236 9.505-1.159 11.605-.365 12.705 4.8 1.122 5.27-.71 6.66-9.89 7.506-9.04.833-10.218 1.4-9.304 4.48.605 2.039 1.287 2.3 4.589 1.754 5.127-.848 7.018 1.239 6.53 7.206-.352 4.325-.64 4.666-4.374 5.166-4.49.601-4.606.723-3.678 3.852.631 2.127 1.1 2.194 8.88 1.276 4.518-.534 8.912-.735 9.763-.447 2.384.807 3.62 9.159 1.616 10.918-1.91 1.676-21.045 3.37-21.967 1.944zm18.8-2.165c1.579-.394 2.126-1.655 2.126-4.9v-4.369l-10.2.691c-10.861.736-11.673.403-11.673-4.78 0-2.13.534-2.428 6.38-3.557 2.513-.485 3.341-1.282 3.341-3.215 0-4.791-1.209-5.956-6.183-5.956-3.986 0-4.822-.404-5.457-2.631-1.293-4.543-.133-5.35 9.307-6.471l9.017-1.071v-8.567l-9.014.286c-10.632.337-12.313 1.23-11.423 6.064.62 3.361.432 3.577-3.691 4.259-2.39.395-4.675 1.19-5.08 1.766-.907 1.295 1.615 21.014 3.101 24.242.912 1.981 1.749 2.255 5.331 1.742 3.914-.56 4.31-.364 5.02 2.47 1.544 6.173 1.257 6.012 9.383 5.244 4.173-.394 8.545-.955 9.714-1.247zm21.565-4.257a373.75 373.75 0 01-1.76-4.296c-.265-.674-1.862-.972-3.616-.677-5.166.87-6.402-1.13-7.953-12.875-.794-6.018-1.692-11.734-1.996-12.703-.744-2.378 2.676-5.2 6.302-5.2 2.625 0 2.95-.465 2.95-4.22 0-2.32.42-4.447.931-4.726.512-.279 5.235-1.034 10.495-1.68 10.833-1.327 12.288-.83 13.208 4.504.986 5.716-.534 6.887-10.031 7.727-4.695.416-8.77 1.09-9.058 1.5-.513.732 1.26 15.333 2.469 20.32.604 2.494.8 2.529 10.159 1.81 5.248-.404 9.806-.344 10.127.134.322.477.962 2.879 1.424 5.338 1.053 5.613-.288 6.371-13.076 7.392l-9.291.742zm17.928.027c3.543-.481 3.949-.903 3.949-4.105 0-5.187-1.688-5.883-11.426-4.709-6.116.738-8.622.677-9.254-.223-1.26-1.796-3.982-23.22-3.11-24.465.407-.58 3.875-1.368 7.708-1.752 11.148-1.117 11.405-1.25 10.985-5.7l-.371-3.925-8.927.221c-10.209.254-12.429 1.36-12.021 5.99.263 2.989-.13 3.382-4.267 4.269-5.23 1.12-5.258 1.24-3.315 14.34 2.02 13.614 1.79 13.194 7.264 13.194 4.264 0 4.898.337 5.547 2.945 1.582 6.364.714 6.166 17.238 3.92zM157 111.153c-.802-.707-1.458-3.348-1.458-5.87 0-5.363-1.398-4.873 20.71-7.261 16.95-1.832 22.64-2.037 23.412-.844 1.265 1.954 1.92 8.43.985 9.731-.655.912-7.38 2.163-18.511 3.442-20.87 2.398-23.24 2.474-25.138.802zm22.845-1.928c10.36-1.176 18.972-2.14 19.139-2.14.167-.001.304-1.944.304-4.318 0-2.754-.629-4.53-1.736-4.905-2.162-.73-34.331 2.576-38.061 3.913-2.954 1.058-3.552 4.104-1.476 7.52 1.517 2.5-.86 2.507 21.83-.07zM153.85 92.54c-.406-.932-.738-3.53-.738-5.774 0-4.883-1.265-4.509 24.007-7.106 11.57-1.188 18.934-1.524 19.589-.894 1.57 1.513 2.508 8.485 1.36 10.12-.637.91-7.127 2.128-17.814 3.346-21.357 2.435-25.457 2.482-26.404.308zm20.578-.986c23.743-2.63 22.433-2.267 22.412-6.203-.035-6.427-.225-6.47-19.554-4.414-21.068 2.24-22.959 2.753-22.959 6.222 0 3.906 1.231 6.004 3.523 6.004 1.125 0 8.586-.724 16.578-1.61zM151.42 74.335c-.405-.931-.737-3.35-.737-5.377 0-4.833 1.134-5.185 24.112-7.475 21.078-2.1 20.798-2.176 20.83 5.691.023 5.302 1.205 4.874-19.98 7.236-18.781 2.093-23.287 2.079-24.225-.075zm22.3-1.023c21.638-2.338 20.71-2.057 20.71-6.274 0-5.99-1.2-6.204-21.736-3.874-10.168 1.153-19.007 2.38-19.642 2.726-1.3.708-1.532 4.812-.416 7.375.91 2.09 2.14 2.093 21.083.047zM16.1 71.587C14.868 70.5 13.805 61.21 14.886 60.97c.167-.037 4.405-.639 9.418-1.338 8.19-1.143 9.155-1.53 9.523-3.827l.41-2.556-9.624.74c-12.103.93-12.587.503-12.863-11.34l-.206-8.86 3.646-.57c3.194-.498 3.692-1.064 4.022-4.576.227-2.408 1.196-4.391 2.43-4.97 2.92-1.368 20.467-2.666 21.186-1.567.33.505.96 2.677 1.399 4.827 1.086 5.311-.98 6.85-10.356 7.714-8.423.776-10.042 1.567-8.843 4.32.705 1.62 1.965 1.759 10.209 1.125 5.172-.398 9.703-.297 10.068.223.365.52 1.262 4.739 1.993 9.374 1.482 9.39.847 11.003-4.552 11.553-2.809.286-3.305.886-3.633 4.399-.447 4.775-1.884 5.468-13.594 6.554-5.661.525-8.33.353-9.418-.608zm20.142-2.522c.887-.29 1.512-1.851 1.39-3.474-.372-4.982-.057-5.624 2.772-5.64 5.522-.034 6.15-1.253 5.208-10.109-.494-4.65-1.495-8.432-2.303-8.705-.786-.266-4.974-.048-9.307.484-8.956 1.101-10.915.351-10.915-4.179 0-3.215-1.112-2.843 14.582-4.876 4.541-.588 4.861-.86 4.861-4.152 0-5.252-1.794-5.996-11.527-4.781-4.607.575-8.683 1.32-9.057 1.657-.375.337-.681 2.374-.681 4.527 0 3.656-.28 3.95-4.254 4.455l-4.253.541.343 7.357c.49 10.522 1.268 11.427 9.086 10.57 12.119-1.326 12.402-1.258 12.814 3.103l.37 3.907-6.446.7C16.264 61.827 15.797 62 15.797 65.33c0 5.13 2.339 6.217 11.14 5.174 4.233-.501 8.42-1.149 9.306-1.439zM57.4 67.212c-1.477-1.59-7.65-43.31-6.723-45.438.823-1.89 3.988-2.509 14.31-2.797l8.48-.237 1.419 3.748c1.241 3.28 1.865 3.708 4.998 3.434 1.97-.173 4.156.31 4.86 1.07.703.762 1.904 5.963 2.668 11.558.763 5.595 1.642 11.222 1.951 12.505.7 2.9-2.315 5.7-6.14 5.7-2.516 0-2.928.57-3.254 4.508-.35 4.213-.653 4.556-4.627 5.23-10.701 1.817-16.699 2.057-17.942.72zm15.512-1.711c5.417-.726 5.468-.772 5.468-4.96 0-4 .244-4.277 4.557-5.184 5.276-1.108 5.297-1.235 2.933-17.342l-1.414-9.638-5.06-.325c-4.723-.303-5.13-.587-6.151-4.283-1.046-3.789-1.298-3.949-5.878-3.732-2.631.125-7.108.516-9.949.869-6.24.776-6.114-.308-2.722 23.534 3.322 23.35 2.802 21.967 8.214 21.872 2.493-.043 6.994-.409 10.002-.811zm-5.258-10.62c-.297-.442-1.235-6.03-2.085-12.416-1.696-12.75-1.285-13.86 4.912-13.294 2.92.266 3.1.726 4.652 11.87.887 6.375 1.315 12.278.95 13.117-.686 1.574-7.465 2.155-8.429.722zm6.895-1.075c.311-.444-.066-5.624-.84-11.512-1.4-10.661-1.42-10.706-4.9-11.056-3.343-.337-3.465-.198-2.798 3.212.383 1.96 1.043 6.456 1.468 9.99.424 3.533 1.036 7.268 1.36 8.299.586 1.86 4.625 2.614 5.71 1.067zm24.077 9.045c-2.04-2.166-5.274-26.528-3.737-28.16.716-.76 5.099-1.712 9.74-2.115 9.094-.79 10.368-1.467 8.51-4.526-1.088-1.791-2.023-1.884-9.902-.989-4.786.545-9.164.581-9.73.082-.565-.5-1.391-2.91-1.835-5.356-.701-3.87-.461-4.612 1.842-5.698 1.457-.687 6.819-1.336 11.916-1.441l9.268-.192 1.156 3.48c.996 3 1.699 3.48 5.084 3.48 2.16 0 4.554.665 5.318 1.477.765.811 1.515 5.508 1.668 10.437l.278 8.962-6.683.882c-11.48 1.513-12.152 1.729-12.152 3.9 0 3.03 1.385 3.353 9.908 2.309 10.447-1.28 12.198-.37 11.725 6.1l-.368 5.02-9.721 1.185c-20.508 2.503-21 2.528-22.285 1.163zm16.425-1.838c14.765-1.7 14.976-1.772 14.955-5.082-.033-5.184-1.196-5.723-11.63-5.381l-9.617.315v-7.496l8.725-1.071c4.8-.589 9.06-1.372 9.468-1.74.966-.87-.588-14.217-1.867-16.042-.577-.822-2.767-1.299-5.282-1.15-3.808.227-4.38-.083-5.037-2.72-1.508-6.057-1.246-5.912-9.356-5.146-11.762 1.111-12.029 1.243-11.604 5.74l.371 3.925 10.011-.236c9.727-.23 10.033-.161 10.764 2.407 1.279 4.49-.095 5.641-7.636 6.398-10.551 1.058-11.316 1.377-11.316 4.718 0 3.374 2.332 20.285 3.078 22.318.596 1.624 3.59 1.67 15.973.243zm35.226-3.367c-2.321-1.144-2.897-9.928-.729-11.109.713-.388 10.045-1.654 20.738-2.813 22.624-2.452 23.254-2.301 22.683 5.44l-.363 4.913-15.797 1.782c-8.688.98-17.757 2.007-20.153 2.283-2.395.276-5.266.053-6.38-.496zm21.722-2.512c20.722-2.31 20-2.082 20-6.3 0-5.86-1.14-6.063-21.284-3.79-10.015 1.131-18.893 2.286-19.728 2.566-1.602.538-2.027 4.591-.782 7.45.917 2.106 3.49 2.115 21.794.074zm-24.699-15.77c-1.816-1.927-2.305-9.08-.717-10.48 2.102-1.852 40.535-5.603 42.522-4.15 2.13 1.559 2.259 10.491.16 11.14-.836.26-8.355 1.213-16.709 2.12s-17.147 1.913-19.538 2.236c-2.88.39-4.812.097-5.718-.866zm26.471-2.77l15.19-1.792.37-3.346c.698-6.33-.906-6.67-21.194-4.495-9.934 1.065-18.745 2.166-19.58 2.446-1.576.528-2.135 7.173-.71 8.43 1.253 1.103 9.325.717 25.924-1.242zm-40.058-15.107c-.692-1.14-1.258-3.757-1.258-5.817 0-4.5-.208-4.424 18.251-6.573 12.998-1.514 14.055-1.5 15.47.198 1.768 2.12 2.045 9.567.39 10.469-1.048.57-26.57 3.794-30.041 3.794-.855 0-2.12-.932-2.812-2.07zm31.248-2.703c1.752-.591 2.002-5.746.388-7.992-.932-1.298-3.124-1.33-14.82-.211-7.55.721-14.479 1.861-15.397 2.533-1.814 1.327-1.126 7.162.98 8.308 1.161.633 25.842-1.624 28.85-2.638z" fill="#235065"/><path d="M17.55 131.612C16.563 130.207 2.448 30.085 2.437 24.425c-.004-2.174.513-4.236 1.15-4.583 1.175-.64 157.064-17.7 161.74-17.7 2.127 0 8.303 3.842 28.837 17.94 1.53 1.05 3.218 10.247 7.763 42.298 5.962 42.037 6.667 49.495 4.777 50.525-1.407.766-178.342 19.878-184.03 19.878-2.367 0-4.674-.527-5.126-1.171zm24.638-6.355c7.608-.78 12.963-1.853 13.828-2.772 1.377-1.461.826-8.503-.775-9.912-.42-.37-2.76-.67-5.201-.67H45.6l-1.574-11.16C42.33 88.72 42.609 87.86 48.22 87.825c1.585-.01 2.967-.889 3.433-2.182 1.118-3.107-.51-8.574-2.783-9.343-1.994-.674-26.67 1.416-29.997 2.541-2.359.798-2.505 7.782-.221 10.535 1.243 1.498 2.556 1.815 5.42 1.31 3.521-.62 3.825-.429 4.422 2.78 1.516 8.15 2.936 19.473 2.49 19.865-.265.234-2.287.748-4.493 1.143-3.667.656-4.043 1.093-4.378 5.098-.404 4.841 2.212 8.282 5.66 7.444 1.098-.267 7.585-1.059 14.414-1.759zm54.851-6.858c2.004-1.76.768-10.111-1.616-10.918-.851-.288-5.245-.087-9.762.447-7.78.918-8.25.85-8.88-1.276-.93-3.129-.813-3.25 3.677-3.852 3.733-.5 4.022-.84 4.375-5.166.487-5.967-1.404-8.054-6.531-7.206-3.302.545-3.984.285-4.59-1.754-.913-3.08.265-3.647 9.305-4.48 9.18-.846 11.012-2.236 9.89-7.506-1.1-5.165-3.2-5.959-12.705-4.8-11.916 1.453-12.152 1.575-12.152 6.236 0 3.829-.274 4.137-4.253 4.795-3.935.65-4.253.995-4.253 4.598 0 6.532 2.68 23.23 3.956 24.653.661.736 3.038 1.338 5.283 1.338 3.449 0 4.205.457 4.88 2.945.44 1.62 1.073 3.37 1.41 3.89.921 1.426 20.055-.268 21.966-1.944zm40.577-3.962c1.94-.915 2.177-1.808 1.473-5.56-.462-2.459-1.102-4.861-1.424-5.338-.321-.478-4.879-.538-10.127-.135-9.359.72-9.555.685-10.16-1.809-1.207-4.987-2.981-19.588-2.468-20.32.287-.41 4.363-1.084 9.058-1.5 9.497-.84 11.017-2.011 10.031-7.727-.92-5.335-2.375-5.83-13.208-4.503-5.26.645-9.983 1.4-10.495 1.679-.511.279-.93 2.406-.93 4.727 0 3.754-.326 4.22-2.951 4.22-3.626 0-7.046 2.821-6.302 5.2.304.968 1.202 6.684 1.996 12.702 1.55 11.744 2.787 13.745 7.953 12.875 1.754-.295 3.351.004 3.617.677a373.75 373.75 0 001.76 4.296l1.283 3.09 9.291-.742c5.11-.408 10.332-1.232 11.603-1.832zm44.523-4.086c11.131-1.28 17.856-2.53 18.511-3.442.935-1.301.28-7.777-.985-9.73-.772-1.194-6.462-.989-23.413.843-22.107 2.388-20.71 1.898-20.71 7.261 0 8.03.308 8.089 26.597 5.068zm-1.885-18.119c10.687-1.218 17.177-2.437 17.815-3.346 1.147-1.635.21-8.607-1.361-10.12-.655-.63-8.019-.294-19.589.894-25.272 2.597-24.007 2.223-24.007 7.106 0 8.555.016 8.558 27.142 5.466zm-4.61-17.822c21.185-2.362 20.002-1.934 19.98-7.236-.032-7.867.248-7.791-20.83-5.69-22.978 2.289-24.112 2.64-24.112 7.474 0 8.008.684 8.158 24.961 5.452zm-139.57-3.824c1.977-.653 2.755-1.919 3.039-4.945.328-3.513.824-4.113 3.633-4.4 5.399-.55 6.034-2.163 4.552-11.552-.731-4.635-1.628-8.854-1.993-9.374-.365-.52-4.896-.62-10.068-.223-8.244.634-9.504.495-10.209-1.124-1.2-2.754.42-3.545 8.843-4.32 9.375-.864 11.442-2.404 10.356-7.715-.44-2.15-1.07-4.322-1.4-4.827-.718-1.099-18.264.199-21.184 1.567-1.235.579-2.204 2.562-2.43 4.97-.331 3.512-.829 4.078-4.023 4.577l-3.646.569.206 8.86c.276 11.843.76 12.27 12.863 11.34l9.625-.74-.41 2.556c-.37 2.296-1.335 2.684-9.524 3.827-5.013.699-9.251 1.301-9.418 1.338-1.081.24-.018 9.53 1.215 10.617 1.6 1.413 14.64.759 19.974-1.001zm39.267-4.093c3.974-.674 4.277-1.017 4.627-5.23.326-3.938.738-4.509 3.255-4.509 3.824 0 6.84-2.8 6.14-5.7-.31-1.282-1.189-6.909-1.952-12.504-.764-5.595-1.965-10.796-2.669-11.557-.703-.762-2.89-1.244-4.859-1.071-3.133.274-3.757-.154-4.998-3.434l-1.418-3.748-8.48.237c-10.323.288-13.488.907-14.311 2.797-.927 2.129 5.246 43.849 6.723 45.438 1.243 1.338 7.24 1.098 17.942-.719zM68.839 52.74c-.325-1.031-.937-4.766-1.361-8.3-.425-3.533-1.085-8.028-1.468-9.989-.667-3.41-.545-3.549 2.798-3.212 3.48.35 3.5.395 4.9 11.056.774 5.888 1.151 11.068.84 11.512-1.085 1.547-5.124.792-5.71-1.067zm52.071 8.95l9.721-1.187.368-5.019c.473-6.47-1.278-7.38-11.725-6.1-8.523 1.044-9.908.721-9.908-2.31 0-2.17.672-2.386 12.152-3.9l6.683-.88-.278-8.963c-.153-4.929-.903-9.626-1.668-10.437-.764-.812-3.157-1.476-5.318-1.476-3.385 0-4.088-.482-5.084-3.48l-1.156-3.48-9.268.19c-5.097.106-10.46.755-11.916 1.442-2.303 1.086-2.543 1.829-1.842 5.698.444 2.446 1.27 4.857 1.835 5.356.566.5 4.944.463 9.73-.082 7.879-.895 8.814-.802 9.902.989 1.858 3.059.584 3.737-8.51 4.526-4.641.403-9.024 1.355-9.74 2.116-1.537 1.631 1.696 25.993 3.737 28.16 1.285 1.364 1.777 1.339 22.285-1.164zm55.898-5.83l15.797-1.782.363-4.912c.57-7.742-.06-7.893-22.683-5.44-10.693 1.158-20.025 2.424-20.738 2.812-.713.389-1.296 2.822-1.296 5.408 0 5.527 1.923 6.945 8.404 6.197 2.396-.276 11.465-1.303 20.153-2.283zm-4.253-17.865c8.354-.907 15.873-1.86 16.709-2.12 2.099-.649 1.97-9.581-.16-11.14-1.987-1.453-40.42 2.298-42.522 4.15-1.588 1.4-1.099 8.553.717 10.48.906.963 2.839 1.255 5.718.866 2.391-.323 11.184-1.33 19.538-2.236zm-20.798-16.026c7.523-.874 14.187-1.866 14.808-2.204 1.655-.902 1.378-8.348-.39-10.469-1.415-1.698-2.472-1.712-15.47-.198-7.673.893-14.918 1.894-16.1 2.225-3.907 1.093-2.159 12.236 1.919 12.236.854 0 7.709-.715 15.233-1.59z" fill="#01367b"/></svg>